<?xml version="1.0" encoding="UTF-8"?>
<!-- Generator: visioncortex VTracer 0.6.4 -->
<svg version="1.1" xmlns="http://www.w3.org/2000/svg" width="1200" height="1200">
<path d="M0 0 C0.92 0.24 1.84 0.48 2.79 0.72 C8.52 2.24 13.33 4.66 18.47 7.59 C21.55 9.31 24.76 10.62 28 12 C33.68 14.91 39.14 18.24 44.62 21.5 C45.25 21.87 45.87 22.24 46.51 22.61 C49.69 24.52 52.76 26.5 55.76 28.67 C58.41 30.58 61.06 32.18 63.91 33.77 C69.51 37.07 75.03 40.7 80.18 44.68 C82.07 46.19 82.07 46.19 85 47 C85 47.66 85 48.32 85 49 C85.72 49.25 86.43 49.5 87.17 49.76 C90.26 51.11 92.62 52.78 95.31 54.81 C99.11 57.63 102.92 60.26 106.95 62.71 C110.32 64.83 113.55 67.15 116.8 69.45 C118.52 70.66 120.25 71.84 122 73 C122 73.66 122 74.32 122 75 C122.82 75.21 123.65 75.41 124.5 75.62 C128.22 77.09 130.73 78.89 133.83 81.34 C136.87 83.66 140.08 85.67 143.31 87.7 C143.87 88.13 144.43 88.56 145 89 C145 89.66 145 90.32 145 91 C145.68 91.04 146.36 91.08 147.06 91.12 C150.62 92.18 152.34 93.87 155.05 96.32 C160.35 100.88 166.55 104.4 172.57 107.92 C173.04 108.28 173.51 108.63 174 109 C174 109.66 174 110.32 174 111 C174.67 111.23 175.34 111.45 176.02 111.69 C179.87 113.38 183.16 115.63 186.62 118 C187.29 118.45 187.96 118.9 188.65 119.37 C189.89 120.2 191.13 121.04 192.36 121.89 C193.9 122.93 195.45 123.97 197 125 C197 125.66 197 126.32 197 127 C197.88 127.25 198.75 127.5 199.65 127.75 C203.17 129.06 205.59 130.66 208.56 132.94 C211.28 135 213.88 136.93 216.84 138.63 C217.55 139.08 218.27 139.53 219 140 C219 140.66 219 141.32 219 142 C219.78 142.19 220.57 142.37 221.38 142.56 C228.06 145.21 233.57 149.9 239.25 154.25 C241.46 155.92 243.38 157.19 245.88 158.44 C249.72 160.36 253.05 162.77 256.54 165.28 C259.01 167.06 259.01 167.06 261.81 168.59 C262.53 169.06 263.25 169.52 264 170 C264 170.66 264 171.32 264 172 C264.82 172.21 265.65 172.41 266.5 172.62 C270.26 174.1 272.76 175.99 275.9 178.47 C279.07 180.78 282.44 182.35 286 184 C286 184.66 286 185.32 286 186 C286.86 186.26 287.73 186.51 288.62 186.77 C292.13 188.05 294.92 189.63 298.06 191.62 C299.2 192.34 300.34 193.06 301.48 193.78 C302.06 194.14 302.64 194.51 303.24 194.89 C306.08 196.68 308.95 198.43 311.81 200.19 C315.3 202.33 318.79 204.49 322.25 206.69 C325.64 208.82 329.12 210.77 332.63 212.69 C335.77 214.43 338.89 216.21 342 218 C343.61 218.92 343.61 218.92 345.25 219.86 C346.35 220.48 347.44 221.11 348.56 221.75 C349.17 222.09 349.77 222.44 350.39 222.79 C353.38 224.5 356.37 226.22 359.35 227.95 C366.7 232.19 374.14 236.21 381.66 240.13 C388.16 243.53 394.58 247.06 400.95 250.69 C405.21 253.09 409.48 255.11 414 257 C415.18 257.64 416.35 258.3 417.5 259 C420.27 260.63 423.08 261.93 426.05 263.15 C428.42 264.18 430.7 265.33 433 266.5 C436.94 268.49 440.93 270.27 445 272 C446.27 272.64 447.55 273.28 448.81 273.94 C452.64 275.88 456.57 277.44 460.57 279 C462.76 279.9 464.84 280.9 466.94 282 C470.98 284.09 475.18 285.55 479.47 287.06 C482.43 288.16 485.17 289.59 488 291 C490.2 291.77 492.42 292.47 494.65 293.18 C496.99 294 499.19 294.96 501.44 296 C504.52 297.42 507.54 298.51 510.81 299.44 C514.62 300.52 518.18 301.87 521.81 303.44 C527.13 305.72 532.5 307.46 538.04 309.1 C540.44 309.83 542.74 310.63 545.06 311.56 C548.18 312.78 551.3 313.6 554.56 314.38 C559.27 315.5 563.8 316.91 568.38 318.5 C574.35 320.56 580.31 322.03 586.51 323.26 C590 324 593.39 324.91 596.81 325.88 C606.82 328.61 617.01 330.47 627.2 332.44 C629.47 332.89 631.73 333.37 633.99 333.88 C645.34 336.38 656.84 337.44 668.39 338.61 C671.82 338.98 675.24 339.41 678.66 339.86 C694.92 341.88 711 342.3 727.38 342.31 C728.42 342.32 729.46 342.32 730.53 342.32 C745.78 342.35 760.83 341.51 776 340 C777.17 339.89 777.17 339.89 778.36 339.77 C797.93 337.86 816.91 334.79 836 330 C836.94 329.77 837.88 329.53 838.85 329.29 C846.65 327.34 854.34 325.3 861.93 322.65 C863.97 322.01 865.96 321.57 868.06 321.19 C873.19 320.12 877.97 318.2 882.84 316.32 C888.21 314.26 893.65 312.51 899.17 310.87 C901.6 310.12 903.95 309.3 906.31 308.38 C910 307 910 307 913.72 306.09 C917.99 305.05 922.06 303.64 926.19 302.12 C932.48 299.86 938.79 297.79 945.2 295.88 C947.64 295.11 950 294.26 952.38 293.31 C956.05 291.98 959.14 291.4 963 291 C961.49 295.32 958.23 297.18 954.56 299.56 C951.11 301.84 947.92 304.06 945 307 C943.01 308.34 941.01 309.68 939 311 C936.27 312.99 933.57 315.02 930.88 317.06 C929.82 317.86 929.82 317.86 928.75 318.67 C927.72 319.44 927.72 319.44 926.68 320.22 C926.03 320.71 925.39 321.19 924.73 321.69 C923.35 322.74 921.99 323.8 920.63 324.87 C919 326 919 326 917 326 C917 326.66 917 327.32 917 328 C916.11 328.39 915.23 328.78 914.31 329.19 C910.85 331.08 908.74 333.19 906 336 C904.33 337 902.67 338 901 339 C898.37 340.95 895.78 342.94 893.2 344.95 C889.21 348 889.21 348 887 348 C887 348.66 887 349.32 887 350 C886.09 350.41 885.18 350.83 884.25 351.25 C881.04 352.77 881.04 352.77 879.14 354.89 C876.78 357.21 874.37 358.82 871.56 360.56 C870.64 361.14 869.71 361.72 868.75 362.32 C866.99 363.39 865.23 364.46 863.45 365.51 C860.97 367.02 858.61 368.63 856.25 370.31 C849.18 375.29 842.04 380.02 834.61 384.43 C831.85 386.09 829.14 387.82 826.44 389.56 C822.39 392.16 818.28 394.53 814.05 396.81 C812.05 397.97 810.23 399.24 808.38 400.62 C805.7 402.61 803.05 403.9 799.94 405.13 C795.74 407.01 791.9 409.59 788 412 C786.29 413.05 784.59 414.09 782.88 415.12 C782.13 415.58 781.38 416.04 780.62 416.51 C778.53 417.7 776.46 418.78 774.31 419.84 C769.52 422.21 764.86 424.79 760.19 427.38 C758.41 428.35 756.64 429.33 754.87 430.31 C752.1 431.84 749.33 433.37 746.57 434.91 C741.86 437.52 737.14 439.88 732.19 442 C729.06 443.43 726.11 445.14 723.12 446.84 C720.17 448.45 717.1 449.7 714 451 C712.72 451.64 711.45 452.28 710.19 452.94 C707.16 454.48 704.11 455.78 700.94 457 C697.97 458.16 695.22 459.36 692.5 461 C688.23 463.56 683.64 465.23 679 467 C673.11 469.25 667.38 471.73 661.69 474.44 C654.91 477.64 648.04 480.41 641 483 C639.43 483.59 637.85 484.17 636.28 484.76 C634.6 485.38 632.93 486 631.25 486.62 C630.47 486.91 629.69 487.2 628.89 487.5 C625.09 488.9 621.29 490.24 617.45 491.5 C613.06 492.95 608.79 494.64 604.5 496.38 C596.97 499.37 589.38 501.79 581.57 503.96 C578.61 504.82 575.86 505.85 573 507 C571.24 507.47 569.46 507.9 567.69 508.31 C562.75 509.51 557.95 510.94 553.12 512.5 C546.95 514.49 540.79 515.98 534.42 517.25 C530.93 518.02 527.55 518.97 524.12 520 C518.02 521.79 511.92 523.04 505.66 524.15 C502.1 524.78 498.56 525.49 495.02 526.23 C483.93 528.53 473 530.55 461.72 531.7 C458.24 532.08 454.77 532.52 451.3 532.97 C450.6 533.06 449.91 533.15 449.19 533.24 C446.35 533.6 443.52 533.96 440.68 534.33 C438.68 534.59 436.68 534.84 434.67 535.1 C433.51 535.25 432.34 535.4 431.14 535.55 C420.94 536.72 410.78 537.17 400.52 537.2 C399.27 537.21 398.02 537.21 396.73 537.22 C394.09 537.23 391.45 537.24 388.81 537.24 C384.87 537.25 380.92 537.28 376.98 537.31 C360.43 537.38 344.39 536.29 328 534 C326.41 533.79 324.82 533.59 323.24 533.38 C319.23 532.86 315.24 532.28 311.25 531.69 C310.57 531.59 309.88 531.48 309.17 531.38 C297.58 529.62 286.38 527.04 275.15 523.63 C272.23 522.77 269.28 522.07 266.31 521.38 C261.6 520.22 257.11 518.68 252.58 516.96 C250.25 516.1 247.93 515.31 245.56 514.56 C240.92 513.04 236.46 511.15 231.96 509.25 C229.36 508.15 226.75 507.1 224.12 506.06 C205.44 498.59 205.44 498.59 198.78 494.14 C196.95 492.97 195.09 492.01 193.12 491.06 C187.06 488.12 181.34 484.57 175.75 480.81 C172.93 478.95 170.05 477.45 167 476 C167 475.34 167 474.68 167 474 C166.19 473.61 166.19 473.61 165.36 473.22 C162.57 471.78 159.92 470.17 157.25 468.5 C156.27 467.89 155.28 467.28 154.27 466.66 C153.52 466.11 152.77 465.56 152 465 C152 464.34 152 463.68 152 463 C151.4 462.89 150.81 462.77 150.19 462.66 C147.21 461.76 145.36 459.88 143.08 457.84 C140.82 455.85 138.48 453.99 136.12 452.12 C120.03 438.99 104.29 423.99 91 408 C90 406.83 89 405.67 88 404.5 C87.52 403.94 87.04 403.37 86.55 402.79 C85.42 401.49 84.29 400.2 83.14 398.93 C82.52 398.23 81.89 397.53 81.25 396.81 C80.68 396.18 80.11 395.55 79.52 394.89 C78 393.01 77.07 391.16 76 389 C75.2 388.2 74.39 387.39 73.56 386.56 C71.14 384.14 69.67 381.96 68 379 C67.16 377.92 67.16 377.92 66.31 376.81 C65 375 65 375 65 373 C64.34 373 63.68 373 63 373 C60 368.62 60 368.62 60 366 C59.34 366 58.68 366 58 366 C56 363 56 363 56 359 C55.34 359 54.68 359 54 359 C52.53 356.9 51.19 354.82 49.88 352.62 C49.5 352.02 49.13 351.42 48.75 350.8 C46 346.27 46 346.27 46 344 C45.34 344 44.68 344 44 344 C42.83 341.88 41.66 339.75 40.5 337.62 C40.17 337.02 39.83 336.42 39.49 335.8 C37 331.23 37 331.23 37 329 C36.34 329 35.68 329 35 329 C34.24 327.48 33.48 325.95 32.71 324.43 C32.07 323.14 31.42 321.84 30.77 320.55 C29.45 317.9 28.13 315.26 26.82 312.61 C25.12 309.16 23.33 305.79 21.44 302.44 C19.35 298.72 17.68 294.92 16 291 C15.16 289.47 14.3 287.95 13.44 286.44 C11.5 283.01 10.2 279.76 9 276 C7.82 273.32 6.59 270.67 5.36 268.01 C3.52 263.95 1.82 259.84 0.12 255.71 C-0.77 253.57 -1.68 251.44 -2.62 249.31 C-3.69 246.75 -4.59 244.26 -5.44 241.62 C-6.45 238.5 -7.62 235.54 -9 232.56 C-10.73 228.76 -11.95 224.98 -13.1 220.98 C-15.99 211.43 -19.58 202.07 -23.12 192.75 C-25.37 186.84 -27.33 180.89 -29.13 174.83 C-29.88 172.4 -30.7 170.05 -31.62 167.69 C-33 164 -33 164 -33.9 160.29 C-34.95 155.99 -36.4 151.9 -37.94 147.75 C-40.07 141.85 -41.87 136 -43.29 129.88 C-44.06 126.75 -45.01 123.7 -46 120.62 C-47.73 115.1 -49.01 109.57 -50.15 103.89 C-50.77 101.07 -51.44 98.3 -52.19 95.51 C-58.44 72.34 -66.05 37.95 -54.64 15.3 C-53.21 13.07 -51.68 11.05 -50 9 C-49.3 7.95 -48.6 6.9 -47.88 5.81 C-35.82 -8.29 -15.32 -4.66 0 0 Z " fill="#889A8B" transform="translate(148,611)"/>
<path d="M0 0 C3.33 0.83 6.51 1.33 9.92 1.71 C17.4 2.73 24.52 4.62 31.79 6.61 C36.33 7.85 40.89 8.92 45.48 9.96 C51.62 11.37 57.62 13.05 63.62 14.97 C66.46 15.86 69.3 16.64 72.17 17.4 C76.08 18.44 79.9 19.65 83.73 20.96 C87.18 22.14 90.53 23.15 94.11 23.84 C98.83 24.8 103.03 26.7 107.44 28.61 C111.64 30.32 115.92 31.59 120.26 32.88 C129.91 35.83 139.19 39.52 148.43 43.56 C151.03 44.66 153.6 45.62 156.29 46.46 C160.61 47.83 164.63 49.68 168.74 51.59 C171.57 52.88 174.42 54.09 177.29 55.28 C182.23 57.32 187.14 59.4 192.04 61.53 C192.72 61.82 193.39 62.11 194.09 62.4 C197.77 64.01 201.17 65.83 204.61 67.9 C205.68 68.19 206.75 68.48 207.86 68.78 C211.8 69.96 214.87 71.63 218.41 73.68 C221.37 75.33 224.49 76.57 227.61 77.9 C229.38 78.88 231.12 79.91 232.86 80.94 C234.83 82.07 234.83 82.07 237.98 83.34 C241.62 84.91 244.96 86.75 248.41 88.71 C250.34 89.76 252.25 90.64 254.29 91.46 C257.72 92.95 260.51 94.84 263.61 96.9 C265.25 97.61 266.9 98.32 268.57 99 C274.9 101.8 280.88 105.44 286.79 109.03 C290.33 111.17 293.89 113.1 297.61 114.91 C303.74 117.96 309.66 121.49 315.61 124.9 C315.61 125.56 315.61 126.22 315.61 126.9 C317.12 127.24 317.12 127.24 318.67 127.59 C322.3 128.62 324.79 130.32 327.76 132.59 C330.84 134.78 334.2 136.29 337.61 137.9 C337.61 138.56 337.61 139.22 337.61 139.9 C338.33 140.17 339.05 140.44 339.8 140.72 C342.55 141.88 344.95 143.22 347.48 144.78 C351.49 147.22 355.52 149.59 359.61 151.9 C359.61 152.56 359.61 153.22 359.61 153.9 C360.68 154.3 360.68 154.3 361.77 154.71 C364.65 155.92 367.24 157.31 369.92 158.9 C370.8 159.42 371.68 159.93 372.59 160.46 C373.26 160.94 373.92 161.41 374.61 161.9 C374.61 162.56 374.61 163.22 374.61 163.9 C375.43 164.11 376.26 164.31 377.11 164.53 C381.6 166.29 384.86 168.9 388.61 171.9 C394.79 176.9 394.79 176.9 401.48 181.15 C404.11 182.62 405.59 183.79 407.61 185.9 C409.71 187.08 409.71 187.08 411.61 187.9 C411.61 188.56 411.61 189.22 411.61 189.9 C412.16 190.16 412.71 190.41 413.28 190.67 C416 192.11 418.37 193.82 420.86 195.65 C421.82 196.36 422.79 197.08 423.79 197.81 C426.16 199.57 428.51 201.36 430.86 203.15 C433.28 204.99 435.69 206.57 438.36 208.03 C441.41 209.79 443.15 211.44 445.61 213.9 C447.33 215.23 449.08 216.52 450.86 217.78 C454.83 220.63 458.78 223.5 462.68 226.46 C464.07 227.5 465.47 228.52 466.88 229.54 C467.61 230.07 468.35 230.6 469.11 231.15 C470.11 231.87 470.11 231.87 471.14 232.61 C471.62 233.03 472.11 233.46 472.61 233.9 C472.61 234.56 472.61 235.22 472.61 235.9 C467.27 234.61 462.03 233.18 456.79 231.53 C456.1 231.31 455.4 231.09 454.68 230.87 C449.83 229.33 445.06 227.64 440.29 225.86 C435.13 224.02 429.86 222.49 424.61 220.9 C415.64 218.17 406.78 215.29 397.98 212.09 C393.6 210.55 389.18 209.2 384.74 207.87 C381.73 206.94 378.77 205.93 375.79 204.9 C370.39 203.08 364.93 201.67 359.39 200.33 C355.76 199.46 352.21 198.5 348.67 197.34 C343.14 195.64 337.49 194.73 331.79 193.79 C327.93 193.14 324.08 192.42 320.23 191.67 C304.03 188.56 288.08 186.76 271.61 185.9 C269.72 185.79 267.83 185.68 265.94 185.57 C260.5 185.26 255.05 185.06 249.61 184.9 C248.7 184.87 247.79 184.84 246.86 184.82 C213.19 183.89 179.44 186.91 146.39 193.19 C142.94 193.84 139.48 194.45 136.02 195.04 C126.88 196.61 117.97 198.45 109.04 200.97 C105.6 201.9 102.16 202.64 98.67 203.34 C92.78 204.56 87.15 206.22 81.44 208.06 C77.42 209.36 73.41 210.49 69.29 211.46 C64.52 212.61 60.02 214.14 55.44 215.87 C52.44 216.96 49.41 217.91 46.36 218.84 C35.2 222.23 24.4 225.87 13.73 230.57 C10.55 231.93 7.36 233.02 4.06 234.07 C-5.35 237.26 -14.43 241.31 -23.41 245.53 C-27.67 247.49 -32.03 249.19 -36.39 250.9 C-43.52 253.71 -50.25 256.8 -56.93 260.56 C-58.98 261.68 -60.99 262.64 -63.14 263.53 C-66.16 264.8 -68.83 266.28 -71.64 267.93 C-74.45 269.49 -77.45 270.64 -80.39 271.9 C-82.17 272.88 -83.91 273.91 -85.65 274.94 C-87.39 275.9 -87.39 275.9 -90.83 277.34 C-93.61 278.56 -95.87 279.77 -98.39 281.4 C-101.29 283.26 -104.12 284.69 -107.32 285.98 C-123.62 293.21 -140.07 303.04 -155.1 312.63 C-157.39 313.9 -157.39 313.9 -160.39 313.9 C-160.39 314.56 -160.39 315.22 -160.39 315.9 C-161.43 316.45 -161.43 316.45 -162.48 317 C-167.92 319.91 -173.11 322.97 -178.2 326.46 C-181.15 328.4 -184.23 330.07 -187.35 331.73 C-189.51 332.97 -191.41 334.4 -193.39 335.9 C-195.03 336.84 -196.66 337.77 -198.3 338.69 C-206.11 343.21 -213.57 348.33 -221.06 353.35 C-224.72 355.8 -228.41 358.18 -232.16 360.49 C-236.17 363.03 -240.09 365.69 -244.03 368.34 C-253.81 374.9 -253.81 374.9 -256.39 374.9 C-256.39 375.56 -256.39 376.22 -256.39 376.9 C-259.3 378.94 -260.8 379.9 -264.39 379.9 C-264.39 380.56 -264.39 381.22 -264.39 381.9 C-268.88 385.98 -274.13 388.97 -279.39 391.9 C-280.51 392.77 -280.51 392.77 -281.64 393.65 C-283.39 394.9 -283.39 394.9 -286.39 394.9 C-286.39 395.56 -286.39 396.22 -286.39 396.9 C-290.31 400.46 -294.8 403.19 -299.42 405.71 C-302.98 407.86 -306.26 410.4 -309.6 412.86 C-312.19 414.75 -314.8 416.6 -317.46 418.4 C-318.17 418.89 -318.88 419.37 -319.62 419.87 C-321.39 420.9 -321.39 420.9 -323.39 420.9 C-323.39 421.56 -323.39 422.22 -323.39 422.9 C-325.18 424.06 -326.97 425.2 -328.79 426.29 C-331.85 428.19 -334.81 430.22 -337.77 432.28 C-338.61 432.87 -338.61 432.87 -339.48 433.47 C-341.12 434.61 -342.76 435.76 -344.39 436.9 C-345.66 437.79 -345.66 437.79 -346.96 438.69 C-350.64 441.25 -354.31 443.84 -357.95 446.45 C-358.57 446.9 -359.19 447.35 -359.83 447.8 C-361.05 448.68 -362.27 449.56 -363.49 450.44 C-372.48 456.9 -372.48 456.9 -375.39 456.9 C-375.39 457.56 -375.39 458.22 -375.39 458.9 C-377.45 460.38 -377.45 460.38 -380.27 462.09 C-386.77 466.11 -393.15 470.26 -399.08 475.09 C-401.36 476.87 -403.71 478.24 -406.23 479.63 C-411.86 482.94 -417.48 486.56 -422.57 490.65 C-424.39 491.9 -424.39 491.9 -427.39 491.9 C-427.39 492.56 -427.39 493.22 -427.39 493.9 C-429.7 495.43 -432 496.84 -434.39 498.21 C-435.78 499.03 -437.17 499.84 -438.56 500.66 C-439.23 501.05 -439.9 501.44 -440.59 501.84 C-442.65 503.05 -444.68 504.31 -446.71 505.59 C-458.82 513.2 -471.12 519.54 -484.39 524.9 C-485.28 525.29 -486.17 525.67 -487.09 526.07 C-487.93 526.42 -488.78 526.78 -489.64 527.15 C-490.37 527.47 -491.1 527.78 -491.85 528.11 C-502.02 531.29 -519.51 532.34 -529.39 527.9 C-538.27 522.7 -544.38 515.2 -547.3 505.31 C-554.22 478.15 -547.61 447.73 -540.1 421.41 C-539.04 417.64 -538.13 413.83 -537.21 410.03 C-536.03 405.29 -534.73 400.69 -533.1 396.09 C-532.26 393.49 -531.64 390.87 -531.02 388.21 C-529.62 382.45 -527.69 376.97 -525.65 371.4 C-523.47 365.33 -521.66 359.15 -519.82 352.97 C-517.44 345.06 -514.88 337.43 -511.58 329.84 C-509.88 325.64 -508.65 321.34 -507.36 317 C-506.24 313.41 -504.89 309.97 -503.42 306.51 C-502.54 304.28 -501.77 302.05 -501.02 299.77 C-499.31 294.57 -497.4 289.45 -495.46 284.34 C-495.12 283.45 -494.79 282.55 -494.44 281.63 C-492.62 276.82 -490.63 272.22 -488.27 267.66 C-487.11 265.32 -486.24 262.93 -485.39 260.46 C-479.63 243.6 -470.93 227.36 -462.4 211.75 C-460.54 208.33 -458.72 204.9 -456.89 201.46 C-456.22 200.2 -455.54 198.93 -454.86 197.66 C-454.38 196.75 -453.89 195.84 -453.39 194.9 C-452.73 194.9 -452.07 194.9 -451.39 194.9 C-451.17 193.91 -450.94 192.92 -450.71 191.9 C-449.45 187.48 -447.29 183.48 -444.39 179.9 C-443.73 179.9 -443.07 179.9 -442.39 179.9 C-442.35 179.24 -442.31 178.58 -442.27 177.9 C-441.2 174.25 -439.41 172.04 -437.07 169.07 C-432.75 163.48 -429.04 157.44 -425.47 151.34 C-425.12 150.86 -424.76 150.39 -424.39 149.9 C-423.73 149.9 -423.07 149.9 -422.39 149.9 C-421.19 147.57 -420.23 145.41 -419.39 142.9 C-418.73 142.9 -418.07 142.9 -417.39 142.9 C-417.14 142.34 -416.89 141.78 -416.63 141.2 C-415.22 138.57 -413.54 136.45 -411.64 134.15 C-409.07 130.99 -406.56 127.81 -404.14 124.53 C-402.07 121.74 -399.94 119.28 -397.39 116.9 C-394.68 114.32 -392.45 111.99 -390.39 108.84 C-388.32 105.8 -386.31 104.11 -383.39 101.9 C-380.68 99.33 -378.21 96.7 -375.89 93.78 C-373.47 90.99 -371.54 89.71 -368.39 87.9 C-366.69 86.28 -365.02 84.61 -363.39 82.9 C-361.06 80.57 -358.73 78.24 -356.39 75.9 C-355.4 75.9 -354.41 75.9 -353.39 75.9 C-353.06 74.91 -352.73 73.92 -352.39 72.9 C-350.41 71.18 -348.44 69.59 -346.33 68.03 C-345.74 67.58 -345.16 67.13 -344.55 66.68 C-340.81 63.87 -336.99 61.31 -332.96 58.92 C-330.81 57.53 -329.17 55.74 -327.39 53.9 C-325.74 52.88 -324.07 51.88 -322.39 50.9 C-321.27 50.05 -320.14 49.2 -319.02 48.34 C-315.59 45.84 -312.52 44.83 -308.39 43.9 C-308.39 43.24 -308.39 42.58 -308.39 41.9 C-292.34 32.96 -276.5 24.22 -259.14 18.03 C-254.82 16.48 -250.65 14.71 -246.46 12.84 C-241.18 10.55 -236.11 8.93 -230.51 7.68 C-226.95 6.79 -223.55 5.62 -220.08 4.4 C-214 2.31 -207.97 0.86 -201.63 -0.29 C-198.6 -0.84 -195.62 -1.51 -192.62 -2.25 C-132.67 -16.61 -59.72 -15.43 0 0 Z " fill="#7D9183" transform="translate(638.39453125,62.09765625)"/>
<path d="M0 0 C2.95 0.71 5.87 1.48 8.8 2.28 C15.94 4.16 23.01 5.92 30.3 7.09 C36.32 8.07 42.17 9.38 48.07 10.92 C53.44 12.31 58.85 13.42 64.3 14.47 C71.1 15.79 77.8 17.3 84.5 19.04 C89.74 20.38 94.99 21.38 100.3 22.33 C105.02 23.18 109.65 24.26 114.3 25.47 C120.17 27 126.04 28.2 132.02 29.26 C137.49 30.25 142.85 31.58 148.24 32.97 C155.17 34.76 162.08 36.22 169.14 37.38 C174.62 38.29 179.95 39.58 185.32 40.98 C190.92 42.43 196.55 43.53 202.25 44.52 C207.11 45.38 207.11 45.38 209.3 46.47 C208.68 50.67 206.29 53.83 203.99 57.28 C200.91 61.93 198.04 66.62 195.3 71.47 C188.09 83.51 188.09 83.51 184.61 88.22 C182.35 91.4 180.52 94.61 178.67 98.03 C176.66 101.61 174.43 105.04 172.2 108.49 C170.83 110.63 169.49 112.78 168.18 114.95 C167.82 115.54 167.47 116.12 167.1 116.73 C166.1 118.39 165.1 120.05 164.1 121.72 C162.6 124.01 161.21 125.58 159.3 127.47 C158.85 128.27 158.39 129.07 157.92 129.89 C156.06 132.85 154.04 134.61 151.3 136.78 C150.43 137.48 149.57 138.18 148.67 138.9 C146.3 140.47 146.3 140.47 143.3 140.47 C143.3 141.13 143.3 141.79 143.3 142.47 C136.28 146.73 128.99 149.65 121.3 152.47 C120.16 152.94 119.01 153.41 117.84 153.9 C112.15 156.02 106.21 157.27 100.29 158.58 C98.29 159.02 96.3 159.49 94.3 159.95 C73.37 164.7 52.04 164.82 30.67 164.72 C29.44 164.72 28.21 164.71 26.95 164.71 C0.31 164.63 -25.45 163.27 -51.7 158.47 C-52.8 158.27 -53.9 158.08 -55.04 157.88 C-67.1 155.74 -78.96 153.44 -90.63 149.68 C-93.97 148.63 -97.33 147.88 -100.76 147.13 C-108.21 145.45 -115.32 143.02 -122.51 140.47 C-123.78 140.03 -125.05 139.58 -126.32 139.14 C-132.48 136.99 -138.61 134.79 -144.7 132.47 C-143.08 128.39 -140.16 125.64 -137.11 122.61 C-136.29 121.79 -136.29 121.79 -135.45 120.95 C-134.29 119.79 -133.14 118.64 -131.98 117.49 C-130.2 115.72 -128.43 113.94 -126.67 112.16 C-125.54 111.04 -124.42 109.92 -123.29 108.8 C-122.76 108.26 -122.23 107.73 -121.69 107.18 C-117.93 103.47 -117.93 103.47 -115.7 103.47 C-115.49 102.93 -115.27 102.39 -115.05 101.83 C-113.22 98.62 -110.71 96.22 -108.1 93.64 C-107.54 93.08 -106.99 92.53 -106.42 91.96 C-105.24 90.78 -104.06 89.61 -102.88 88.44 C-101.1 86.68 -99.32 84.91 -97.55 83.13 C-96.4 81.99 -95.25 80.84 -94.1 79.7 C-93.58 79.18 -93.06 78.66 -92.52 78.12 C-89.77 75.41 -86.97 72.82 -84.03 70.31 C-79 65.94 -74.34 61.22 -69.65 56.5 C-68.01 54.84 -66.36 53.18 -64.71 51.53 C-61.2 48.01 -57.7 44.49 -54.2 40.97 C-50.14 36.89 -46.08 32.8 -42.01 28.72 C-40.4 27.1 -38.79 25.48 -37.18 23.86 C-32.36 19.01 -27.51 14.27 -22.28 9.85 C-19.31 7.25 -16.82 4.19 -14.27 1.19 C-9.74 -1.85 -5.18 -1.02 0 0 Z " fill="#8C9D8E" transform="translate(735.700927734375,584.530029296875)"/>
<path d="M0 0 C7.43 0 14.72 0.59 22.1 1.38 C23.97 1.58 23.97 1.58 25.88 1.77 C29.84 2.18 33.81 2.6 37.77 3.02 C54.43 4.77 71.05 6.34 87.77 7.38 C102.79 8.34 117.74 9.96 132.71 11.54 C149.29 13.28 165.84 14.69 182.47 15.71 C187.98 16.06 193.47 16.54 198.96 17.14 C198.39 21.6 196.68 24.56 194.27 28.33 C193.54 29.47 192.82 30.61 192.09 31.76 C191.73 32.32 191.37 32.89 191 33.47 C188.97 36.73 187.08 40.07 185.18 43.41 C184.78 43.98 184.38 44.55 183.96 45.14 C183.3 45.14 182.64 45.14 181.96 45.14 C181.81 45.93 181.67 46.71 181.52 47.52 C180.96 50.14 180.96 50.14 179.96 52.14 C179.3 52.14 178.64 52.14 177.96 52.14 C177.68 52.87 177.41 53.6 177.13 54.35 C176.01 57.02 174.73 59.36 173.21 61.83 C172.42 63.12 172.42 63.12 171.61 64.45 C171.07 65.34 170.52 66.22 169.96 67.14 C168.89 68.91 167.83 70.68 166.77 72.45 C165.36 74.8 165.36 74.8 163.96 77.14 C163.45 78.06 162.93 78.98 162.41 79.93 C161.93 80.66 161.45 81.39 160.96 82.14 C160.3 82.14 159.64 82.14 158.96 82.14 C158.81 82.93 158.67 83.71 158.52 84.52 C157.96 87.14 157.96 87.14 156.96 89.14 C156.3 89.14 155.64 89.14 154.96 89.14 C154.68 89.87 154.41 90.6 154.13 91.35 C153.01 94.02 151.73 96.36 150.21 98.83 C149.68 99.69 149.16 100.55 148.61 101.43 C147.79 102.77 147.79 102.77 146.96 104.14 C145.39 106.8 143.82 109.45 142.26 112.11 C140.96 114.14 140.96 114.14 138.96 116.14 C131.86 116.42 124.75 114.51 117.88 112.96 C113.54 112.02 109.16 111.36 104.77 110.7 C98.28 109.72 91.87 108.54 85.46 107.14 C79.15 105.76 72.85 104.6 66.46 103.64 C59.26 102.56 52.18 101.18 45.07 99.62 C39.64 98.45 34.21 97.52 28.71 96.7 C21.46 95.63 14.35 94.19 7.21 92.58 C0.97 91.17 -5.18 89.88 -11.54 89.14 C-18.91 88.28 -26.04 86.66 -33.27 85.03 C-39.51 83.65 -45.73 82.46 -52.04 81.52 C-57.92 80.63 -63.77 79.7 -69.6 78.58 C-70.8 78.35 -72 78.12 -73.23 77.89 C-76.04 77.14 -76.04 77.14 -78.04 75.14 C-74.88 71.95 -71.71 68.77 -68.54 65.59 C-67.47 64.51 -66.39 63.43 -65.32 62.35 C-63.77 60.78 -62.21 59.22 -60.66 57.66 C-60.19 57.18 -59.71 56.71 -59.23 56.21 C-55.98 52.97 -52.58 50.05 -49.04 47.14 C-46.52 44.74 -44.24 42.39 -42.1 39.64 C-39.69 36.72 -36.97 34.54 -34.04 32.14 C-31.5 29.72 -29.2 27.35 -27.04 24.58 C-24.92 22 -22.67 20.19 -20.04 18.14 C-17.57 15.79 -15.3 13.48 -13.23 10.77 C-10.2 7.13 -6.64 4.21 -3.04 1.14 C-2.04 0.14 -2.04 0.14 0 0 Z " fill="#8D9E8F" transform="translate(824.0417938232422,486.8586730957031)"/>
<path d="M0 0 C0.8 0.13 1.6 0.27 2.42 0.41 C4.83 0.84 7.23 1.32 9.62 1.81 C10.49 1.99 11.35 2.16 12.25 2.34 C18.28 3.59 24.24 5.02 30.2 6.57 C35.44 7.91 40.69 8.91 46 9.86 C50.72 10.71 55.35 11.79 60 13 C65.84 14.52 71.68 15.73 77.63 16.78 C84.39 18.01 91.06 19.63 97.73 21.29 C102.48 22.45 107.14 23.41 112 24 C111.44 27.23 110.63 28.98 108 31 C107.01 31 106.02 31 105 31 C104.73 31.6 104.47 32.2 104.19 32.82 C102.97 35.06 101.84 36.27 99.91 37.92 C99.3 38.45 98.68 38.97 98.05 39.52 C97.07 40.34 97.07 40.34 96.06 41.19 C95.06 42.05 95.06 42.05 94.03 42.92 C89.17 47.06 84.25 51.11 79.27 55.1 C76.99 56.95 76.99 56.95 75 59 C72.83 61.17 70.53 63.03 68.12 64.94 C63.57 68.62 59.26 72.48 55 76.5 C50.04 81.17 44.96 85.56 39.65 89.82 C36.82 92.15 34.13 94.58 31.44 97.06 C27.17 100.99 22.78 104.66 18.19 108.21 C15.06 110.77 12.34 113.64 9.56 116.56 C7.14 118.87 4.85 120.29 2 122 C0.31 123.64 -1.35 125.31 -3 127 C-4.55 128.45 -6.11 129.89 -7.69 131.31 C-8.45 132.01 -9.22 132.71 -10.01 133.43 C-12 135 -12 135 -14 135 C-14.33 135.99 -14.66 136.98 -15 138 C-17.33 140.23 -17.33 140.23 -20.25 142.62 C-21.2 143.42 -22.16 144.22 -23.14 145.04 C-26.07 147.05 -27.53 147.63 -31 148 C-33.51 147.45 -33.51 147.45 -36.19 146.48 C-37.2 146.12 -38.22 145.76 -39.26 145.4 C-40.35 145 -41.44 144.6 -42.56 144.19 C-43.7 143.78 -44.84 143.38 -46.02 142.96 C-49.68 141.65 -53.34 140.33 -57 139 C-60.64 137.69 -64.28 136.39 -67.92 135.09 C-70.31 134.24 -72.69 133.38 -75.08 132.53 C-82.24 129.97 -89.42 127.49 -96.64 125.11 C-110.49 120.54 -124.2 115.58 -137.94 110.69 C-139.76 110.04 -139.76 110.04 -141.62 109.38 C-142.77 108.97 -143.91 108.56 -145.09 108.14 C-146.11 107.77 -147.13 107.41 -148.18 107.03 C-150.81 106.07 -153.41 105.05 -156 104 C-154.5 99.79 -151.47 97.96 -147.88 95.62 C-146.69 94.83 -145.51 94.04 -144.32 93.24 C-143.75 92.86 -143.18 92.48 -142.59 92.08 C-140.57 90.71 -138.62 89.24 -136.69 87.75 C-134.26 85.9 -131.8 84.22 -129.19 82.62 C-122.95 78.82 -116.99 74.48 -111.37 69.82 C-109 68 -109 68 -105.75 66.94 C-104.84 66.63 -103.94 66.32 -103 66 C-102.5 64.51 -102.5 64.51 -102 63 C-100.23 61.85 -98.44 60.72 -96.62 59.64 C-93.42 57.64 -90.37 55.46 -87.31 53.25 C-82.62 49.87 -77.9 46.53 -73.12 43.25 C-68.96 40.38 -64.89 37.44 -60.87 34.38 C-58.19 32.4 -55.41 30.6 -52.63 28.78 C-48.68 26.11 -44.82 23.31 -40.96 20.51 C-31.93 14 -31.93 14 -29 14 C-28.67 13.01 -28.34 12.02 -28 11 C-26.5 9.86 -26.5 9.86 -24.56 8.75 C-22.09 7.31 -19.84 5.87 -17.6 4.09 C-16.78 3.44 -15.97 2.79 -15.12 2.12 C-14.39 1.51 -13.65 0.89 -12.88 0.26 C-8.47 -1.67 -4.65 -0.78 0 0 Z " fill="#829586" transform="translate(552,545)"/>
<path d="M0 0 C3.22 0.68 6.39 1.51 9.56 2.38 C15.85 4.02 22.09 5.46 28.5 6.5 C35.64 7.66 42.59 9.34 49.59 11.16 C56.29 12.87 63 14.22 69.81 15.42 C72.25 15.86 74.61 16.36 77 17 C77 17.99 77 18.98 77 20 C76.2 20.37 75.39 20.74 74.56 21.12 C67.37 24.73 60.9 29.74 54.36 34.39 C51.96 36.03 49.5 37.51 47 39 C45.08 40.26 43.16 41.53 41.25 42.81 C40.19 43.52 39.13 44.23 38.04 44.96 C36.26 46.15 34.49 47.35 32.71 48.54 C28.8 51.16 24.86 53.73 20.89 56.27 C16.2 59.26 11.54 62.28 7 65.5 C1.45 69.44 -4.28 73.08 -10.02 76.73 C-13.64 79.05 -17.26 81.36 -20.88 83.69 C-21.56 84.13 -22.25 84.57 -22.96 85.02 C-27.18 87.73 -31.21 90.6 -35.18 93.67 C-36.96 94.97 -38.76 96.06 -40.69 97.12 C-43.97 98.87 -43.97 98.87 -46.5 101 C-48.86 102.89 -51.26 104.34 -53.9 105.8 C-61.77 110.27 -61.77 110.27 -68.96 115.71 C-71.85 117.53 -73.62 117.38 -77 117 C-79.52 116.14 -81.88 115.25 -84.31 114.19 C-90.36 111.65 -90.36 111.65 -96.56 109.5 C-110.14 105.09 -121.15 100.11 -128 87 C-129.49 81.71 -129.13 77.05 -127 72 C-123.3 65.56 -118.94 60.44 -113 56 C-112.48 55.58 -111.96 55.17 -111.43 54.74 C-106.99 51.33 -102.12 48.97 -97.11 46.53 C-93.28 44.65 -89.56 42.61 -85.83 40.55 C-82.83 38.91 -79.82 37.3 -76.81 35.69 C-71.84 33.02 -66.91 30.28 -62 27.5 C-45.37 18.11 -45.37 18.11 -36.81 13.94 C-33.81 12.47 -30.98 10.8 -28.12 9.06 C-23.9 6.48 -19.59 4.23 -15.13 2.08 C-9.09 -0.98 -6.76 -1.1 0 0 Z " fill="#7E9183" transform="translate(430,518)"/>
<path d="M0 0 C6.82 0.73 13.63 1.44 20.45 2.15 C21.56 2.26 21.56 2.26 22.69 2.38 C34.76 3.63 46.83 4.56 58.95 5.26 C60.11 5.33 61.27 5.39 62.46 5.46 C63.99 5.55 63.99 5.55 65.54 5.63 C68.06 5.87 68.06 5.87 71.06 6.87 C69.46 11.36 65.93 13.81 62.38 16.75 C61.78 17.25 61.18 17.75 60.56 18.27 C59.34 19.29 58.13 20.31 56.91 21.33 C54.45 23.38 52.02 25.47 49.59 27.56 C47.88 29.03 46.16 30.48 44.44 31.93 C42.32 33.74 40.39 35.56 38.44 37.56 C36.1 39.84 33.85 41.2 31.06 42.87 C29.9 44.01 28.73 45.14 27.61 46.32 C20.97 53 13.62 59.07 6.47 65.18 C3.77 67.49 1.15 69.78 -1.36 72.29 C-5.88 76.82 -5.88 76.82 -8.93 76.98 C-9.64 76.87 -10.34 76.76 -11.07 76.65 C-11.87 76.54 -12.66 76.42 -13.47 76.3 C-17.46 75.61 -21.42 74.83 -25.37 74 C-31.88 72.66 -38.38 71.42 -44.94 70.37 C-52.16 69.21 -59.31 67.82 -66.47 66.35 C-72.7 65.09 -78.94 64.02 -85.21 63.02 C-91.55 61.98 -97.81 60.65 -104.08 59.29 C-110.08 58 -116.06 57.04 -122.15 56.27 C-124.48 55.94 -126.67 55.5 -128.94 54.87 C-128.61 53.88 -128.28 52.89 -127.94 51.87 C-127.28 51.87 -126.62 51.87 -125.94 51.87 C-125.94 51.21 -125.94 50.55 -125.94 49.87 C-124.18 48.75 -122.41 47.63 -120.62 46.56 C-116.64 44.05 -112.85 41.28 -109.04 38.53 C-105.39 35.89 -101.68 33.37 -97.94 30.87 C-97.09 30.19 -96.25 29.51 -95.37 28.81 C-92.94 26.87 -92.94 26.87 -90.72 25.56 C-87.33 23.5 -84.15 21.2 -80.94 18.87 C-69.92 10.87 -69.92 10.87 -66.94 10.87 C-66.94 10.21 -66.94 9.55 -66.94 8.87 C-64.84 7.24 -62.76 5.73 -60.56 4.25 C-59.96 3.83 -59.36 3.41 -58.73 2.97 C-54.2 -0.13 -54.2 -0.13 -51.94 -0.13 C-51.94 -0.79 -51.94 -1.45 -51.94 -2.13 C-38.97 -8.61 -14.22 -1.52 0 0 Z " fill="#849788" transform="translate(693.9366455078125,475.12835693359375)"/>
<path d="M0 0 C1.25 -0.01 2.5 -0.02 3.79 -0.03 C5.16 -0.02 6.52 -0.01 7.89 0.01 C9.32 0 10.74 0 12.17 -0 C15.97 -0.01 19.77 0.02 23.57 0.05 C25.92 0.06 28.27 0.08 30.62 0.08 C60.19 0.2 89.1 1.49 118.23 7.02 C121.07 7.54 123.92 7.97 126.78 8.41 C132.92 9.43 138.79 11.04 144.73 12.88 C146.22 13.31 146.22 13.31 147.74 13.76 C153.11 15.4 157.38 17.12 161.86 20.5 C163.22 21.28 163.22 21.28 164.61 22.06 C166.86 23.5 166.86 23.5 168.86 26.5 C170.09 33.09 167.12 36.86 163.49 42.24 C161.86 44.5 161.86 44.5 160.86 45.5 C158.35 45.61 155.87 45.65 153.36 45.64 C152.59 45.64 151.83 45.64 151.04 45.63 C143.71 45.57 136.45 45.08 129.15 44.45 C126.81 44.25 124.48 44.06 122.14 43.87 C117.15 43.46 112.16 43.05 107.17 42.63 C100.65 42.08 94.12 41.54 87.6 41.01 C86.78 40.94 85.97 40.88 85.13 40.81 C72.13 39.76 59.12 38.99 46.09 38.35 C30.28 37.57 14.52 36.45 -1.26 35.16 C-4.01 34.94 -6.77 34.73 -9.53 34.52 C-12.86 34.26 -16.19 33.99 -19.52 33.72 C-20.74 33.63 -21.96 33.53 -23.21 33.44 C-24.33 33.35 -25.45 33.25 -26.6 33.16 C-27.58 33.08 -28.55 33 -29.56 32.92 C-32.13 32.5 -33.91 31.8 -36.14 30.5 C-32.74 26.35 -29.41 22.79 -25.14 19.5 C-22.43 16.93 -20 14.33 -17.64 11.44 C-15.3 8.69 -12.98 6.69 -10.14 4.5 C-9.56 3.81 -8.97 3.13 -8.37 2.42 C-5.45 -0.09 -3.82 0 0 0 Z " fill="#8E9F8F" transform="translate(874.140869140625,441.498291015625)"/>
<path d="M0 0 C10.7 1.13 21.38 2.03 32.12 2.69 C42.58 3.33 52.93 4.19 63.31 5.62 C62.02 9.5 60.5 10.03 57.06 12.12 C56.11 12.71 55.15 13.3 54.17 13.91 C53.23 14.47 52.28 15.04 51.31 15.62 C49.96 16.48 49.96 16.48 48.58 17.34 C46.31 18.62 46.31 18.62 44.31 18.62 C44.31 19.29 44.31 19.94 44.31 20.62 C42.17 22.15 40.05 23.56 37.81 24.94 C36.84 25.55 36.84 25.55 35.85 26.17 C34.01 27.33 32.16 28.48 30.31 29.62 C24.35 33.32 18.5 37.14 12.68 41.06 C9.27 43.35 5.83 45.52 2.31 47.62 C0.72 48.71 -0.86 49.82 -2.44 50.94 C-3.31 51.54 -4.19 52.14 -5.09 52.77 C-7.67 54.56 -7.67 54.56 -9.88 56.48 C-13.15 59.11 -15.37 60.61 -19.65 60.66 C-23.06 60.16 -26.34 59.45 -29.69 58.62 C-31.92 58.14 -34.14 57.66 -36.38 57.19 C-37.55 56.93 -38.72 56.67 -39.93 56.4 C-43.96 55.57 -48 54.9 -52.06 54.25 C-59.41 53.08 -66.67 51.62 -73.94 50.06 C-81.63 48.42 -89.26 46.96 -97.08 45.98 C-99.35 45.67 -101.48 45.23 -103.69 44.62 C-103.69 43.97 -103.69 43.31 -103.69 42.62 C-102.76 42.13 -101.82 41.63 -100.86 41.12 C-96.8 38.96 -92.75 36.79 -88.69 34.62 C-87.61 34.05 -86.54 33.48 -85.43 32.89 C-78.3 29.06 -71.22 25.14 -64.16 21.19 C-59.38 18.53 -54.58 15.99 -49.63 13.66 C-47.63 12.67 -47.63 12.67 -45.87 11.18 C-43.54 9.52 -41.17 8.53 -38.53 7.45 C-34.86 5.81 -31.47 3.53 -28.11 1.32 C-19.63 -3.84 -9.39 -1.03 0 0 Z " fill="#809385" transform="translate(545.6875,462.375)"/>
<path d="M0 0 C1.22 -0 2.44 -0 3.7 -0 C7.03 0 10.35 0.03 13.68 0.06 C17.17 0.09 20.65 0.09 24.14 0.1 C30.73 0.12 37.32 0.16 43.91 0.21 C51.41 0.26 58.92 0.29 66.43 0.32 C81.86 0.37 97.3 0.46 112.73 0.57 C109.77 3.55 106.8 6.45 103.61 9.19 C101.22 11.24 98.95 13.34 96.73 15.57 C95.49 16.68 94.24 17.79 92.98 18.88 C92.35 19.43 91.71 19.99 91.06 20.56 C89.91 21.55 89.91 21.55 88.73 22.57 C88.28 23.07 87.82 23.57 87.36 24.08 C84.86 26.64 82.91 28.38 79.32 28.95 C76.44 28.91 73.65 28.67 70.79 28.35 C69.73 28.26 68.66 28.17 67.57 28.07 C64.1 27.77 60.63 27.42 57.17 27.07 C53.56 26.74 49.95 26.43 46.34 26.11 C43.92 25.9 41.5 25.68 39.08 25.46 C28.72 24.53 18.37 23.92 7.98 23.44 C4.98 23.3 1.98 23.15 -1.02 23 C-1.72 22.97 -2.42 22.93 -3.14 22.9 C-10.11 22.54 -17.06 22.05 -24.02 21.51 C-25.05 21.43 -26.08 21.35 -27.14 21.26 C-28.07 21.19 -28.99 21.11 -29.94 21.03 C-31.13 20.93 -31.13 20.93 -32.35 20.83 C-34.27 20.57 -34.27 20.57 -36.27 19.57 C-34.82 15.74 -32.89 14.38 -29.27 12.57 C-28.61 12.57 -27.95 12.57 -27.27 12.57 C-27.27 11.91 -27.27 11.25 -27.27 10.57 C-25.77 9.45 -25.77 9.45 -23.71 8.26 C-20.97 6.65 -18.78 5.13 -16.38 3.01 C-11.31 -0.6 -6.01 -0.09 0 0 Z " fill="#869889" transform="translate(699.269287109375,441.432373046875)"/>
<path d="M0 0 C2.02 0.01 4.03 0.01 6.05 0.01 C10.95 0.02 15.85 0.04 20.75 0.06 C19.13 1.77 17.46 3.44 15.75 5.06 C15.09 5.06 14.43 5.06 13.75 5.06 C13.75 5.72 13.75 6.38 13.75 7.06 C8 10.06 8 10.06 5.75 10.06 C5.75 10.72 5.75 11.38 5.75 12.06 C-4.44 19.65 -20.43 15.85 -32.56 15.19 C-33.81 15.12 -33.81 15.12 -35.08 15.05 C-45.56 14.49 -56.03 13.86 -66.5 13 C-67.48 12.92 -68.46 12.84 -69.47 12.76 C-75.99 12.19 -75.99 12.19 -78.25 11.06 C-78.25 10.4 -78.25 9.74 -78.25 9.06 C-54.43 4.15 -54.43 4.15 -42.94 2.31 C-42.23 2.2 -41.52 2.08 -40.79 1.96 C-27.22 -0.13 -13.7 -0.06 0 0 Z " fill="#819486" transform="translate(628.25,441.9375)"/>
</svg>
